<svg class="rich-terminal" viewBox="0 0 1238 782.0" xmlns="http://www.w3.org/2000/svg">
    <!-- Generated with Rich https://www.textualize.io -->
    <style>

    @font-face {
        font-family: "Fira Code";
        src: local("FiraCode-Regular"),
                url("https://cdnjs.cloudflare.com/ajax/libs/firacode/6.2.0/woff2/FiraCode-Regular.woff2") format("woff2"),
                url("https://cdnjs.cloudflare.com/ajax/libs/firacode/6.2.0/woff/FiraCode-Regular.woff") format("woff");
        font-style: normal;
        font-weight: 400;
    }
    @font-face {
        font-family: "Fira Code";
        src: local("FiraCode-Bold"),
                url("https://cdnjs.cloudflare.com/ajax/libs/firacode/6.2.0/woff2/FiraCode-Bold.woff2") format("woff2"),
                url("https://cdnjs.cloudflare.com/ajax/libs/firacode/6.2.0/woff/FiraCode-Bold.woff") format("woff");
        font-style: bold;
        font-weight: 700;
    }

    .terminal-1890433795-matrix {
        font-family: Fira Code, monospace;
        font-size: 20px;
        line-height: 24.4px;
        font-variant-east-asian: full-width;
    }

    .terminal-1890433795-title {
        font-size: 18px;
        font-weight: bold;
        font-family: arial;
    }

    .terminal-1890433795-r1 { fill: #c5c8c6 }
.terminal-1890433795-r2 { fill: #ede7dd }
.terminal-1890433795-r3 { fill: #a9a49c }
.terminal-1890433795-r4 { fill: #d1584f;font-weight: bold }
.terminal-1890433795-r5 { fill: #ede7dd;font-weight: bold }
.terminal-1890433795-r6 { fill: #b3a998 }
.terminal-1890433795-r7 { fill: #d97757 }
.terminal-1890433795-r8 { fill: #e2bb4c;font-weight: bold }
.terminal-1890433795-r9 { fill: #8a6ee6;font-weight: bold }
.terminal-1890433795-r10 { fill: #4d4a45 }
    </style>

    <defs>
    <clipPath id="terminal-1890433795-clip-terminal">
      <rect x="0" y="0" width="1219.0" height="731.0" />
    </clipPath>
    <clipPath id="terminal-1890433795-line-0">
    <rect x="0" y="1.5" width="1220" height="24.65"/>
            </clipPath>
<clipPath id="terminal-1890433795-line-1">
    <rect x="0" y="25.9" width="1220" height="24.65"/>
            </clipPath>
<clipPath id="terminal-1890433795-line-2">
    <rect x="0" y="50.3" width="1220" height="24.65"/>
            </clipPath>
<clipPath id="terminal-1890433795-line-3">
    <rect x="0" y="74.7" width="1220" height="24.65"/>
            </clipPath>
<clipPath id="terminal-1890433795-line-4">
    <rect x="0" y="99.1" width="1220" height="24.65"/>
            </clipPath>
<clipPath id="terminal-1890433795-line-5">
    <rect x="0" y="123.5" width="1220" height="24.65"/>
            </clipPath>
<clipPath id="terminal-1890433795-line-6">
    <rect x="0" y="147.9" width="1220" height="24.65"/>
            </clipPath>
<clipPath id="terminal-1890433795-line-7">
    <rect x="0" y="172.3" width="1220" height="24.65"/>
            </clipPath>
<clipPath id="terminal-1890433795-line-8">
    <rect x="0" y="196.7" width="1220" height="24.65"/>
            </clipPath>
<clipPath id="terminal-1890433795-line-9">
    <rect x="0" y="221.1" width="1220" height="24.65"/>
            </clipPath>
<clipPath id="terminal-1890433795-line-10">
    <rect x="0" y="245.5" width="1220" height="24.65"/>
            </clipPath>
<clipPath id="terminal-1890433795-line-11">
    <rect x="0" y="269.9" width="1220" height="24.65"/>
            </clipPath>
<clipPath id="terminal-1890433795-line-12">
    <rect x="0" y="294.3" width="1220" height="24.65"/>
            </clipPath>
<clipPath id="terminal-1890433795-line-13">
    <rect x="0" y="318.7" width="1220" height="24.65"/>
            </clipPath>
<clipPath id="terminal-1890433795-line-14">
    <rect x="0" y="343.1" width="1220" height="24.65"/>
            </clipPath>
<clipPath id="terminal-1890433795-line-15">
    <rect x="0" y="367.5" width="1220" height="24.65"/>
            </clipPath>
<clipPath id="terminal-1890433795-line-16">
    <rect x="0" y="391.9" width="1220" height="24.65"/>
            </clipPath>
<clipPath id="terminal-1890433795-line-17">
    <rect x="0" y="416.3" width="1220" height="24.65"/>
            </clipPath>
<clipPath id="terminal-1890433795-line-18">
    <rect x="0" y="440.7" width="1220" height="24.65"/>
            </clipPath>
<clipPath id="terminal-1890433795-line-19">
    <rect x="0" y="465.1" width="1220" height="24.65"/>
            </clipPath>
<clipPath id="terminal-1890433795-line-20">
    <rect x="0" y="489.5" width="1220" height="24.65"/>
            </clipPath>
<clipPath id="terminal-1890433795-line-21">
    <rect x="0" y="513.9" width="1220" height="24.65"/>
            </clipPath>
<clipPath id="terminal-1890433795-line-22">
    <rect x="0" y="538.3" width="1220" height="24.65"/>
            </clipPath>
<clipPath id="terminal-1890433795-line-23">
    <rect x="0" y="562.7" width="1220" height="24.65"/>
            </clipPath>
<clipPath id="terminal-1890433795-line-24">
    <rect x="0" y="587.1" width="1220" height="24.65"/>
            </clipPath>
<clipPath id="terminal-1890433795-line-25">
    <rect x="0" y="611.5" width="1220" height="24.65"/>
            </clipPath>
<clipPath id="terminal-1890433795-line-26">
    <rect x="0" y="635.9" width="1220" height="24.65"/>
            </clipPath>
<clipPath id="terminal-1890433795-line-27">
    <rect x="0" y="660.3" width="1220" height="24.65"/>
            </clipPath>
<clipPath id="terminal-1890433795-line-28">
    <rect x="0" y="684.7" width="1220" height="24.65"/>
            </clipPath>
    </defs>

    <rect fill="#292929" stroke="rgba(255,255,255,0.35)" stroke-width="1" x="1" y="1" width="1236" height="780" rx="8"/><text class="terminal-1890433795-title" fill="#c5c8c6" text-anchor="middle" x="618" y="27">slurmpast</text>
            <g transform="translate(26,22)">
            <circle cx="0" cy="0" r="7" fill="#ff5f57"/>
            <circle cx="22" cy="0" r="7" fill="#febc2e"/>
            <circle cx="44" cy="0" r="7" fill="#28c840"/>
            </g>
        
    <g transform="translate(9, 41)" clip-path="url(#terminal-1890433795-clip-terminal)">
    <rect fill="#262320" x="0" y="1.5" width="12.2" height="24.65" shape-rendering="crispEdges"/><rect fill="#262320" x="12.2" y="1.5" width="0" height="24.65" shape-rendering="crispEdges"/><rect fill="#262320" x="12.2" y="1.5" width="73.2" height="24.65" shape-rendering="crispEdges"/><rect fill="#262320" x="85.4" y="1.5" width="12.2" height="24.65" shape-rendering="crispEdges"/><rect fill="#262320" x="97.6" y="1.5" width="378.2" height="24.65" shape-rendering="crispEdges"/><rect fill="#262320" x="475.8" y="1.5" width="109.8" height="24.65" shape-rendering="crispEdges"/><rect fill="#262320" x="585.6" y="1.5" width="36.6" height="24.65" shape-rendering="crispEdges"/><rect fill="#262320" x="622.2" y="1.5" width="97.6" height="24.65" shape-rendering="crispEdges"/><rect fill="#262320" x="719.8" y="1.5" width="378.2" height="24.65" shape-rendering="crispEdges"/><rect fill="#262320" x="1098" y="1.5" width="12.2" height="24.65" shape-rendering="crispEdges"/><rect fill="#262320" x="1110.2" y="1.5" width="0" height="24.65" shape-rendering="crispEdges"/><rect fill="#262320" x="1110.2" y="1.5" width="97.6" height="24.65" shape-rendering="crispEdges"/><rect fill="#262320" x="1207.8" y="1.5" width="12.2" height="24.65" shape-rendering="crispEdges"/><rect fill="#1e1c1b" x="0" y="25.9" width="12.2" height="24.65" shape-rendering="crispEdges"/><rect fill="#1e1c1b" x="12.2" y="25.9" width="24.4" height="24.65" shape-rendering="crispEdges"/><rect fill="#1e1c1b" x="36.6" y="25.9" width="48.8" height="24.65" shape-rendering="crispEdges"/><rect fill="#1e1c1b" x="85.4" y="25.9" width="475.8" height="24.65" shape-rendering="crispEdges"/><rect fill="#1e1c1b" x="561.2" y="25.9" width="646.6" height="24.65" shape-rendering="crispEdges"/><rect fill="#1e1c1b" x="1207.8" y="25.9" width="12.2" height="24.65" shape-rendering="crispEdges"/><rect fill="#1e1c1b" x="0" y="50.3" width="12.2" height="24.65" shape-rendering="crispEdges"/><rect fill="#1e1c1b" x="12.2" y="50.3" width="1183.4" height="24.65" shape-rendering="crispEdges"/><rect fill="#1e1c1b" x="1195.6" y="50.3" width="12.2" height="24.65" shape-rendering="crispEdges"/><rect fill="#1e1c1b" x="1207.8" y="50.3" width="12.2" height="24.65" shape-rendering="crispEdges"/><rect fill="#1e1c1b" x="0" y="74.7" width="12.2" height="24.65" shape-rendering="crispEdges"/><rect fill="#1e1c1b" x="12.2" y="74.7" width="1159" height="24.65" shape-rendering="crispEdges"/><rect fill="#1e1c1b" x="1171.2" y="74.7" width="36.6" height="24.65" shape-rendering="crispEdges"/><rect fill="#1e1c1b" x="1207.8" y="74.7" width="12.2" height="24.65" shape-rendering="crispEdges"/><rect fill="#1e1c1b" x="0" y="99.1" width="12.2" height="24.65" shape-rendering="crispEdges"/><rect fill="#1e1c1b" x="12.2" y="99.1" width="622.2" height="24.65" shape-rendering="crispEdges"/><rect fill="#1e1c1b" x="634.4" y="99.1" width="573.4" height="24.65" shape-rendering="crispEdges"/><rect fill="#1e1c1b" x="1207.8" y="99.1" width="12.2" height="24.65" shape-rendering="crispEdges"/><rect fill="#1e1c1b" x="0" y="123.5" width="12.2" height="24.65" shape-rendering="crispEdges"/><rect fill="#1e1c1b" x="12.2" y="123.5" width="1085.8" height="24.65" shape-rendering="crispEdges"/><rect fill="#1e1c1b" x="1098" y="123.5" width="109.8" height="24.65" shape-rendering="crispEdges"/><rect fill="#1e1c1b" x="1207.8" y="123.5" width="12.2" height="24.65" shape-rendering="crispEdges"/><rect fill="#1e1c1b" x="0" y="147.9" width="12.2" height="24.65" shape-rendering="crispEdges"/><rect fill="#1e1c1b" x="12.2" y="147.9" width="1183.4" height="24.65" shape-rendering="crispEdges"/><rect fill="#1e1c1b" x="1195.6" y="147.9" width="12.2" height="24.65" shape-rendering="crispEdges"/><rect fill="#1e1c1b" x="1207.8" y="147.9" width="12.2" height="24.65" shape-rendering="crispEdges"/><rect fill="#1e1c1b" x="0" y="172.3" width="12.2" height="24.65" shape-rendering="crispEdges"/><rect fill="#1e1c1b" x="12.2" y="172.3" width="280.6" height="24.65" shape-rendering="crispEdges"/><rect fill="#1e1c1b" x="292.8" y="172.3" width="915" height="24.65" shape-rendering="crispEdges"/><rect fill="#1e1c1b" x="1207.8" y="172.3" width="12.2" height="24.65" shape-rendering="crispEdges"/><rect fill="#1e1c1b" x="0" y="196.7" width="12.2" height="24.65" shape-rendering="crispEdges"/><rect fill="#1e1c1b" x="12.2" y="196.7" width="0" height="24.65" shape-rendering="crispEdges"/><rect fill="#1e1c1b" x="12.2" y="196.7" width="1195.6" height="24.65" shape-rendering="crispEdges"/><rect fill="#1e1c1b" x="1207.8" y="196.7" width="12.2" height="24.65" shape-rendering="crispEdges"/><rect fill="#1e1c1b" x="0" y="221.1" width="12.2" height="24.65" shape-rendering="crispEdges"/><rect fill="#1e1c1b" x="12.2" y="221.1" width="24.4" height="24.65" shape-rendering="crispEdges"/><rect fill="#1e1c1b" x="36.6" y="221.1" width="48.8" height="24.65" shape-rendering="crispEdges"/><rect fill="#1e1c1b" x="85.4" y="221.1" width="597.8" height="24.65" shape-rendering="crispEdges"/><rect fill="#1e1c1b" x="683.2" y="221.1" width="524.6" height="24.65" shape-rendering="crispEdges"/><rect fill="#1e1c1b" x="1207.8" y="221.1" width="12.2" height="24.65" shape-rendering="crispEdges"/><rect fill="#1e1c1b" x="0" y="245.5" width="12.2" height="24.65" shape-rendering="crispEdges"/><rect fill="#1e1c1b" x="12.2" y="245.5" width="1085.8" height="24.65" shape-rendering="crispEdges"/><rect fill="#1e1c1b" x="1098" y="245.5" width="109.8" height="24.65" shape-rendering="crispEdges"/><rect fill="#1e1c1b" x="1207.8" y="245.5" width="12.2" height="24.65" shape-rendering="crispEdges"/><rect fill="#1e1c1b" x="0" y="269.9" width="12.2" height="24.65" shape-rendering="crispEdges"/><rect fill="#1e1c1b" x="12.2" y="269.9" width="756.4" height="24.65" shape-rendering="crispEdges"/><rect fill="#1e1c1b" x="768.6" y="269.9" width="439.2" height="24.65" shape-rendering="crispEdges"/><rect fill="#1e1c1b" x="1207.8" y="269.9" width="12.2" height="24.65" shape-rendering="crispEdges"/><rect fill="#1e1c1b" x="0" y="294.3" width="12.2" height="24.65" shape-rendering="crispEdges"/><rect fill="#1e1c1b" x="12.2" y="294.3" width="1134.6" height="24.65" shape-rendering="crispEdges"/><rect fill="#1e1c1b" x="1146.8" y="294.3" width="61" height="24.65" shape-rendering="crispEdges"/><rect fill="#1e1c1b" x="1207.8" y="294.3" width="12.2" height="24.65" shape-rendering="crispEdges"/><rect fill="#1e1c1b" x="0" y="318.7" width="12.2" height="24.65" shape-rendering="crispEdges"/><rect fill="#1e1c1b" x="12.2" y="318.7" width="793" height="24.65" shape-rendering="crispEdges"/><rect fill="#1e1c1b" x="805.2" y="318.7" width="402.6" height="24.65" shape-rendering="crispEdges"/><rect fill="#1e1c1b" x="1207.8" y="318.7" width="12.2" height="24.65" shape-rendering="crispEdges"/><rect fill="#1e1c1b" x="0" y="343.1" width="12.2" height="24.65" shape-rendering="crispEdges"/><rect fill="#1e1c1b" x="12.2" y="343.1" width="0" height="24.65" shape-rendering="crispEdges"/><rect fill="#1e1c1b" x="12.2" y="343.1" width="1195.6" height="24.65" shape-rendering="crispEdges"/><rect fill="#1e1c1b" x="1207.8" y="343.1" width="12.2" height="24.65" shape-rendering="crispEdges"/><rect fill="#1e1c1b" x="0" y="367.5" width="12.2" height="24.65" shape-rendering="crispEdges"/><rect fill="#1e1c1b" x="12.2" y="367.5" width="24.4" height="24.65" shape-rendering="crispEdges"/><rect fill="#1e1c1b" x="36.6" y="367.5" width="48.8" height="24.65" shape-rendering="crispEdges"/><rect fill="#1e1c1b" x="85.4" y="367.5" width="597.8" height="24.65" shape-rendering="crispEdges"/><rect fill="#1e1c1b" x="683.2" y="367.5" width="524.6" height="24.65" shape-rendering="crispEdges"/><rect fill="#1e1c1b" x="1207.8" y="367.5" width="12.2" height="24.65" shape-rendering="crispEdges"/><rect fill="#1e1c1b" x="0" y="391.9" width="12.2" height="24.65" shape-rendering="crispEdges"/><rect fill="#1e1c1b" x="12.2" y="391.9" width="976" height="24.65" shape-rendering="crispEdges"/><rect fill="#1e1c1b" x="988.2" y="391.9" width="219.6" height="24.65" shape-rendering="crispEdges"/><rect fill="#1e1c1b" x="1207.8" y="391.9" width="12.2" height="24.65" shape-rendering="crispEdges"/><rect fill="#1e1c1b" x="0" y="416.3" width="12.2" height="24.65" shape-rendering="crispEdges"/><rect fill="#1e1c1b" x="12.2" y="416.3" width="1024.8" height="24.65" shape-rendering="crispEdges"/><rect fill="#1e1c1b" x="1037" y="416.3" width="170.8" height="24.65" shape-rendering="crispEdges"/><rect fill="#1e1c1b" x="1207.8" y="416.3" width="12.2" height="24.65" shape-rendering="crispEdges"/><rect fill="#1e1c1b" x="0" y="440.7" width="12.2" height="24.65" shape-rendering="crispEdges"/><rect fill="#1e1c1b" x="12.2" y="440.7" width="0" height="24.65" shape-rendering="crispEdges"/><rect fill="#1e1c1b" x="12.2" y="440.7" width="1195.6" height="24.65" shape-rendering="crispEdges"/><rect fill="#1e1c1b" x="1207.8" y="440.7" width="12.2" height="24.65" shape-rendering="crispEdges"/><rect fill="#1e1c1b" x="0" y="465.1" width="12.2" height="24.65" shape-rendering="crispEdges"/><rect fill="#1e1c1b" x="12.2" y="465.1" width="0" height="24.65" shape-rendering="crispEdges"/><rect fill="#1e1c1b" x="12.2" y="465.1" width="1195.6" height="24.65" shape-rendering="crispEdges"/><rect fill="#1e1c1b" x="1207.8" y="465.1" width="12.2" height="24.65" shape-rendering="crispEdges"/><rect fill="#1e1c1b" x="0" y="489.5" width="12.2" height="24.65" shape-rendering="crispEdges"/><rect fill="#1e1c1b" x="12.2" y="489.5" width="1195.6" height="24.65" shape-rendering="crispEdges"/><rect fill="#1e1c1b" x="1207.8" y="489.5" width="12.2" height="24.65" shape-rendering="crispEdges"/><rect fill="#1e1c1b" x="0" y="513.9" width="12.2" height="24.65" shape-rendering="crispEdges"/><rect fill="#1e1c1b" x="12.2" y="513.9" width="1195.6" height="24.65" shape-rendering="crispEdges"/><rect fill="#1e1c1b" x="1207.8" y="513.9" width="12.2" height="24.65" shape-rendering="crispEdges"/><rect fill="#1e1c1b" x="0" y="538.3" width="12.2" height="24.65" shape-rendering="crispEdges"/><rect fill="#1e1c1b" x="12.2" y="538.3" width="1195.6" height="24.65" shape-rendering="crispEdges"/><rect fill="#1e1c1b" x="1207.8" y="538.3" width="12.2" height="24.65" shape-rendering="crispEdges"/><rect fill="#1e1c1b" x="0" y="562.7" width="12.2" height="24.65" shape-rendering="crispEdges"/><rect fill="#1e1c1b" x="12.2" y="562.7" width="1195.6" height="24.65" shape-rendering="crispEdges"/><rect fill="#1e1c1b" x="1207.8" y="562.7" width="12.2" height="24.65" shape-rendering="crispEdges"/><rect fill="#1e1c1b" x="0" y="587.1" width="12.2" height="24.65" shape-rendering="crispEdges"/><rect fill="#1e1c1b" x="12.2" y="587.1" width="1195.6" height="24.65" shape-rendering="crispEdges"/><rect fill="#1e1c1b" x="1207.8" y="587.1" width="12.2" height="24.65" shape-rendering="crispEdges"/><rect fill="#1e1c1b" x="0" y="611.5" width="12.2" height="24.65" shape-rendering="crispEdges"/><rect fill="#1e1c1b" x="12.2" y="611.5" width="1195.6" height="24.65" shape-rendering="crispEdges"/><rect fill="#1e1c1b" x="1207.8" y="611.5" width="12.2" height="24.65" shape-rendering="crispEdges"/><rect fill="#1e1c1b" x="0" y="635.9" width="12.2" height="24.65" shape-rendering="crispEdges"/><rect fill="#1e1c1b" x="12.2" y="635.9" width="1195.6" height="24.65" shape-rendering="crispEdges"/><rect fill="#1e1c1b" x="1207.8" y="635.9" width="12.2" height="24.65" shape-rendering="crispEdges"/><rect fill="#1e1c1b" x="0" y="660.3" width="12.2" height="24.65" shape-rendering="crispEdges"/><rect fill="#1e1c1b" x="12.2" y="660.3" width="1195.6" height="24.65" shape-rendering="crispEdges"/><rect fill="#1e1c1b" x="1207.8" y="660.3" width="12.2" height="24.65" shape-rendering="crispEdges"/><rect fill="#1e1c1b" x="0" y="684.7" width="12.2" height="24.65" shape-rendering="crispEdges"/><rect fill="#1e1c1b" x="12.2" y="684.7" width="1195.6" height="24.65" shape-rendering="crispEdges"/><rect fill="#1e1c1b" x="1207.8" y="684.7" width="12.2" height="24.65" shape-rendering="crispEdges"/><rect fill="#262320" x="0" y="709.1" width="36.6" height="24.65" shape-rendering="crispEdges"/><rect fill="#262320" x="36.6" y="709.1" width="61" height="24.65" shape-rendering="crispEdges"/><rect fill="#262320" x="97.6" y="709.1" width="36.6" height="24.65" shape-rendering="crispEdges"/><rect fill="#262320" x="134.2" y="709.1" width="134.2" height="24.65" shape-rendering="crispEdges"/><rect fill="#262320" x="268.4" y="709.1" width="805.2" height="24.65" shape-rendering="crispEdges"/><rect fill="#262320" x="1073.6" y="709.1" width="12.2" height="24.65" shape-rendering="crispEdges"/><rect fill="#262320" x="1085.8" y="709.1" width="24.4" height="24.65" shape-rendering="crispEdges"/><rect fill="#262320" x="1110.2" y="709.1" width="97.6" height="24.65" shape-rendering="crispEdges"/><rect fill="#262320" x="1207.8" y="709.1" width="12.2" height="24.65" shape-rendering="crispEdges"/>
    <g class="terminal-1890433795-matrix">
    <text class="terminal-1890433795-r2" x="475.8" y="20" textLength="109.8" clip-path="url(#terminal-1890433795-line-0)">slurmpast</text><text class="terminal-1890433795-r3" x="585.6" y="20" textLength="36.6" clip-path="url(#terminal-1890433795-line-0)">&#160;—&#160;</text><text class="terminal-1890433795-r3" x="622.2" y="20" textLength="97.6" clip-path="url(#terminal-1890433795-line-0)">patterns</text><text class="terminal-1890433795-r1" x="1220" y="20" textLength="12.2" clip-path="url(#terminal-1890433795-line-0)">
</text><text class="terminal-1890433795-r4" x="36.6" y="44.4" textLength="48.8" clip-path="url(#terminal-1890433795-line-1)">FAIL</text><text class="terminal-1890433795-r5" x="85.4" y="44.4" textLength="475.8" clip-path="url(#terminal-1890433795-line-1)">&#160;&#160;Memory&#160;request&#160;is&#160;being&#160;hand-searched</text><text class="terminal-1890433795-r1" x="1220" y="44.4" textLength="12.2" clip-path="url(#terminal-1890433795-line-1)">
</text><text class="terminal-1890433795-r6" x="12.2" y="68.8" textLength="1183.4" clip-path="url(#terminal-1890433795-line-2)">&#160;&#160;&#160;&#160;&#160;&#160;&#160;&#160;8&#160;OOM&#160;kills&#160;for&#160;rc-tok-github_code&#160;with&#160;--mem&#160;walking&#160;32.0&#160;GiB&#160;-&gt;&#160;32.0&#160;GiB&#160;-&gt;&#160;17.0&#160;GiB&#160;-&gt;</text><text class="terminal-1890433795-r1" x="1220" y="68.8" textLength="12.2" clip-path="url(#terminal-1890433795-line-2)">
</text><text class="terminal-1890433795-r6" x="12.2" y="93.2" textLength="1159" clip-path="url(#terminal-1890433795-line-3)">&#160;&#160;&#160;&#160;&#160;&#160;&#160;&#160;12.0&#160;GiB&#160;-&gt;&#160;12.0&#160;GiB&#160;-&gt;&#160;14.0&#160;GiB&#160;-&gt;&#160;16.0&#160;GiB&#160;-&gt;&#160;18.0&#160;GiB.&#160;Job&#160;5100044&#160;then&#160;COMPLETED&#160;at</text><text class="terminal-1890433795-r1" x="1220" y="93.2" textLength="12.2" clip-path="url(#terminal-1890433795-line-3)">
</text><text class="terminal-1890433795-r6" x="12.2" y="117.6" textLength="622.2" clip-path="url(#terminal-1890433795-line-4)">&#160;&#160;&#160;&#160;&#160;&#160;&#160;&#160;32.0&#160;GiB&#160;--&#160;a&#160;value&#160;that&#160;had&#160;already&#160;OOM&#x27;d.</text><text class="terminal-1890433795-r1" x="1220" y="117.6" textLength="12.2" clip-path="url(#terminal-1890433795-line-4)">
</text><text class="terminal-1890433795-r7" x="12.2" y="142" textLength="1085.8" clip-path="url(#terminal-1890433795-line-5)">&#160;&#160;&#160;&#160;&#160;&#160;&#160;&#160;→&#160;--mem&#160;is&#160;not&#160;the&#160;deciding&#160;variable:&#160;the&#160;same&#160;request&#160;both&#160;failed&#160;and&#160;succeeded.</text><text class="terminal-1890433795-r1" x="1220" y="142" textLength="12.2" clip-path="url(#terminal-1890433795-line-5)">
</text><text class="terminal-1890433795-r6" x="12.2" y="166.4" textLength="1183.4" clip-path="url(#terminal-1890433795-line-6)">&#160;&#160;&#160;&#160;&#160;&#160;&#160;&#160;&#160;&#160;Something&#160;else&#160;changed&#160;(worker&#160;count,&#160;batch&#160;size,&#160;input&#160;shard).&#160;Find&#160;that&#160;before&#160;tuning</text><text class="terminal-1890433795-r1" x="1220" y="166.4" textLength="12.2" clip-path="url(#terminal-1890433795-line-6)">
</text><text class="terminal-1890433795-r6" x="12.2" y="190.8" textLength="280.6" clip-path="url(#terminal-1890433795-line-7)">&#160;&#160;&#160;&#160;&#160;&#160;&#160;&#160;&#160;&#160;memory&#160;again.</text><text class="terminal-1890433795-r1" x="1220" y="190.8" textLength="12.2" clip-path="url(#terminal-1890433795-line-7)">
</text><text class="terminal-1890433795-r1" x="1220" y="215.2" textLength="12.2" clip-path="url(#terminal-1890433795-line-8)">
</text><text class="terminal-1890433795-r8" x="36.6" y="239.6" textLength="48.8" clip-path="url(#terminal-1890433795-line-9)">WARN</text><text class="terminal-1890433795-r5" x="85.4" y="239.6" textLength="597.8" clip-path="url(#terminal-1890433795-line-9)">&#160;&#160;This&#160;work&#160;has&#160;failed&#160;repeatedly&#160;in&#160;the&#160;same&#160;way</text><text class="terminal-1890433795-r1" x="1220" y="239.6" textLength="12.2" clip-path="url(#terminal-1890433795-line-9)">
</text><text class="terminal-1890433795-r6" x="12.2" y="264" textLength="1085.8" clip-path="url(#terminal-1890433795-line-10)">&#160;&#160;&#160;&#160;&#160;&#160;&#160;&#160;14&#160;of&#160;20&#160;runs&#160;of&#160;cot-exp&#160;in&#160;test&#160;failed;&#160;14&#160;were&#160;TIMEOUT.&#160;Every&#160;one&#160;used&#160;the&#160;same</text><text class="terminal-1890433795-r1" x="1220" y="264" textLength="12.2" clip-path="url(#terminal-1890433795-line-10)">
</text><text class="terminal-1890433795-r6" x="12.2" y="288.4" textLength="756.4" clip-path="url(#terminal-1890433795-line-11)">&#160;&#160;&#160;&#160;&#160;&#160;&#160;&#160;--time=00:30:00.&#160;7&#160;GPU-hours&#160;consumed&#160;by&#160;the&#160;failures.</text><text class="terminal-1890433795-r1" x="1220" y="288.4" textLength="12.2" clip-path="url(#terminal-1890433795-line-11)">
</text><text class="terminal-1890433795-r7" x="12.2" y="312.8" textLength="1134.6" clip-path="url(#terminal-1890433795-line-12)">&#160;&#160;&#160;&#160;&#160;&#160;&#160;&#160;→&#160;14&#160;of&#160;these&#160;consumed&#160;under&#160;10&#160;CPU-seconds&#160;--&#160;they&#160;hung&#160;rather&#160;than&#160;ran&#160;out&#160;of&#160;time.</text><text class="terminal-1890433795-r1" x="1220" y="312.8" textLength="12.2" clip-path="url(#terminal-1890433795-line-12)">
</text><text class="terminal-1890433795-r6" x="12.2" y="337.2" textLength="793" clip-path="url(#terminal-1890433795-line-13)">&#160;&#160;&#160;&#160;&#160;&#160;&#160;&#160;&#160;&#160;Raising&#160;the&#160;limit&#160;will&#160;not&#160;help;&#160;fix&#160;the&#160;blocking&#160;call.</text><text class="terminal-1890433795-r1" x="1220" y="337.2" textLength="12.2" clip-path="url(#terminal-1890433795-line-13)">
</text><text class="terminal-1890433795-r1" x="1220" y="361.6" textLength="12.2" clip-path="url(#terminal-1890433795-line-14)">
</text><text class="terminal-1890433795-r8" x="36.6" y="386" textLength="48.8" clip-path="url(#terminal-1890433795-line-15)">WARN</text><text class="terminal-1890433795-r5" x="85.4" y="386" textLength="597.8" clip-path="url(#terminal-1890433795-line-15)">&#160;&#160;This&#160;work&#160;has&#160;failed&#160;repeatedly&#160;in&#160;the&#160;same&#160;way</text><text class="terminal-1890433795-r1" x="1220" y="386" textLength="12.2" clip-path="url(#terminal-1890433795-line-15)">
</text><text class="terminal-1890433795-r6" x="12.2" y="410.4" textLength="976" clip-path="url(#terminal-1890433795-line-16)">&#160;&#160;&#160;&#160;&#160;&#160;&#160;&#160;8&#160;of&#160;10&#160;runs&#160;of&#160;rc-tok-github_code&#160;in&#160;test&#160;failed;&#160;8&#160;were&#160;OUT_OF_MEMORY.</text><text class="terminal-1890433795-r1" x="1220" y="410.4" textLength="12.2" clip-path="url(#terminal-1890433795-line-16)">
</text><text class="terminal-1890433795-r7" x="12.2" y="434.8" textLength="1024.8" clip-path="url(#terminal-1890433795-line-17)">&#160;&#160;&#160;&#160;&#160;&#160;&#160;&#160;→&#160;See&#160;the&#160;memory-search&#160;check&#160;--&#160;the&#160;next&#160;increment&#160;is&#160;probably&#160;not&#160;the&#160;fix.</text><text class="terminal-1890433795-r1" x="1220" y="434.8" textLength="12.2" clip-path="url(#terminal-1890433795-line-17)">
</text><text class="terminal-1890433795-r1" x="1220" y="459.2" textLength="12.2" clip-path="url(#terminal-1890433795-line-18)">
</text><text class="terminal-1890433795-r1" x="1220" y="483.6" textLength="12.2" clip-path="url(#terminal-1890433795-line-19)">
</text><text class="terminal-1890433795-r1" x="1220" y="508" textLength="12.2" clip-path="url(#terminal-1890433795-line-20)">
</text><text class="terminal-1890433795-r1" x="1220" y="532.4" textLength="12.2" clip-path="url(#terminal-1890433795-line-21)">
</text><text class="terminal-1890433795-r1" x="1220" y="556.8" textLength="12.2" clip-path="url(#terminal-1890433795-line-22)">
</text><text class="terminal-1890433795-r1" x="1220" y="581.2" textLength="12.2" clip-path="url(#terminal-1890433795-line-23)">
</text><text class="terminal-1890433795-r1" x="1220" y="605.6" textLength="12.2" clip-path="url(#terminal-1890433795-line-24)">
</text><text class="terminal-1890433795-r1" x="1220" y="630" textLength="12.2" clip-path="url(#terminal-1890433795-line-25)">
</text><text class="terminal-1890433795-r1" x="1220" y="654.4" textLength="12.2" clip-path="url(#terminal-1890433795-line-26)">
</text><text class="terminal-1890433795-r1" x="1220" y="678.8" textLength="12.2" clip-path="url(#terminal-1890433795-line-27)">
</text><text class="terminal-1890433795-r1" x="1220" y="703.2" textLength="12.2" clip-path="url(#terminal-1890433795-line-28)">
</text><text class="terminal-1890433795-r9" x="0" y="727.6" textLength="36.6" clip-path="url(#terminal-1890433795-line-29)">&#160;q&#160;</text><text class="terminal-1890433795-r2" x="36.6" y="727.6" textLength="61" clip-path="url(#terminal-1890433795-line-29)">Back&#160;</text><text class="terminal-1890433795-r9" x="97.6" y="727.6" textLength="36.6" clip-path="url(#terminal-1890433795-line-29)">&#160;w&#160;</text><text class="terminal-1890433795-r2" x="134.2" y="727.6" textLength="134.2" clip-path="url(#terminal-1890433795-line-29)">Time&#160;range&#160;</text><text class="terminal-1890433795-r10" x="1073.6" y="727.6" textLength="12.2" clip-path="url(#terminal-1890433795-line-29)">▏</text><text class="terminal-1890433795-r9" x="1085.8" y="727.6" textLength="24.4" clip-path="url(#terminal-1890433795-line-29)">^p</text><text class="terminal-1890433795-r2" x="1110.2" y="727.6" textLength="97.6" clip-path="url(#terminal-1890433795-line-29)">&#160;palette</text>
    </g>
    </g>
</svg>
