<svg class="rich-terminal" viewBox="0 0 1238 782.0" xmlns="http://www.w3.org/2000/svg">
    <!-- Generated with Rich https://www.textualize.io -->
    <style>

    @font-face {
        font-family: "Fira Code";
        src: local("FiraCode-Regular"),
                url("https://cdnjs.cloudflare.com/ajax/libs/firacode/6.2.0/woff2/FiraCode-Regular.woff2") format("woff2"),
                url("https://cdnjs.cloudflare.com/ajax/libs/firacode/6.2.0/woff/FiraCode-Regular.woff") format("woff");
        font-style: normal;
        font-weight: 400;
    }
    @font-face {
        font-family: "Fira Code";
        src: local("FiraCode-Bold"),
                url("https://cdnjs.cloudflare.com/ajax/libs/firacode/6.2.0/woff2/FiraCode-Bold.woff2") format("woff2"),
                url("https://cdnjs.cloudflare.com/ajax/libs/firacode/6.2.0/woff/FiraCode-Bold.woff") format("woff");
        font-style: bold;
        font-weight: 700;
    }

    .terminal-1755120052-matrix {
        font-family: Fira Code, monospace;
        font-size: 20px;
        line-height: 24.4px;
        font-variant-east-asian: full-width;
    }

    .terminal-1755120052-title {
        font-size: 18px;
        font-weight: bold;
        font-family: arial;
    }

    .terminal-1755120052-r1 { fill: #c5c8c6 }
.terminal-1755120052-r2 { fill: #ede7dd }
.terminal-1755120052-r3 { fill: #a9a49c }
.terminal-1755120052-r4 { fill: #ede7dd;font-weight: bold }
.terminal-1755120052-r5 { fill: #6aa84f }
.terminal-1755120052-r6 { fill: #1e1c1b }
.terminal-1755120052-r7 { fill: #d97757 }
.terminal-1755120052-r8 { fill: #b3a998 }
.terminal-1755120052-r9 { fill: #159fc0 }
.terminal-1755120052-r10 { fill: #857d70 }
.terminal-1755120052-r11 { fill: #df5f97 }
.terminal-1755120052-r12 { fill: #d97757;font-weight: bold }
.terminal-1755120052-r13 { fill: #159fc0;font-weight: bold }
.terminal-1755120052-r14 { fill: #df5f97;font-weight: bold }
.terminal-1755120052-r15 { fill: #8a6ee6;font-weight: bold }
.terminal-1755120052-r16 { fill: #8a6ee6 }
.terminal-1755120052-r17 { fill: #000000 }
.terminal-1755120052-r18 { fill: #4d4a45 }
    </style>

    <defs>
    <clipPath id="terminal-1755120052-clip-terminal">
      <rect x="0" y="0" width="1219.0" height="731.0" />
    </clipPath>
    <clipPath id="terminal-1755120052-line-0">
    <rect x="0" y="1.5" width="1220" height="24.65"/>
            </clipPath>
<clipPath id="terminal-1755120052-line-1">
    <rect x="0" y="25.9" width="1220" height="24.65"/>
            </clipPath>
<clipPath id="terminal-1755120052-line-2">
    <rect x="0" y="50.3" width="1220" height="24.65"/>
            </clipPath>
<clipPath id="terminal-1755120052-line-3">
    <rect x="0" y="74.7" width="1220" height="24.65"/>
            </clipPath>
<clipPath id="terminal-1755120052-line-4">
    <rect x="0" y="99.1" width="1220" height="24.65"/>
            </clipPath>
<clipPath id="terminal-1755120052-line-5">
    <rect x="0" y="123.5" width="1220" height="24.65"/>
            </clipPath>
<clipPath id="terminal-1755120052-line-6">
    <rect x="0" y="147.9" width="1220" height="24.65"/>
            </clipPath>
<clipPath id="terminal-1755120052-line-7">
    <rect x="0" y="172.3" width="1220" height="24.65"/>
            </clipPath>
<clipPath id="terminal-1755120052-line-8">
    <rect x="0" y="196.7" width="1220" height="24.65"/>
            </clipPath>
<clipPath id="terminal-1755120052-line-9">
    <rect x="0" y="221.1" width="1220" height="24.65"/>
            </clipPath>
<clipPath id="terminal-1755120052-line-10">
    <rect x="0" y="245.5" width="1220" height="24.65"/>
            </clipPath>
<clipPath id="terminal-1755120052-line-11">
    <rect x="0" y="269.9" width="1220" height="24.65"/>
            </clipPath>
<clipPath id="terminal-1755120052-line-12">
    <rect x="0" y="294.3" width="1220" height="24.65"/>
            </clipPath>
<clipPath id="terminal-1755120052-line-13">
    <rect x="0" y="318.7" width="1220" height="24.65"/>
            </clipPath>
<clipPath id="terminal-1755120052-line-14">
    <rect x="0" y="343.1" width="1220" height="24.65"/>
            </clipPath>
<clipPath id="terminal-1755120052-line-15">
    <rect x="0" y="367.5" width="1220" height="24.65"/>
            </clipPath>
<clipPath id="terminal-1755120052-line-16">
    <rect x="0" y="391.9" width="1220" height="24.65"/>
            </clipPath>
<clipPath id="terminal-1755120052-line-17">
    <rect x="0" y="416.3" width="1220" height="24.65"/>
            </clipPath>
<clipPath id="terminal-1755120052-line-18">
    <rect x="0" y="440.7" width="1220" height="24.65"/>
            </clipPath>
<clipPath id="terminal-1755120052-line-19">
    <rect x="0" y="465.1" width="1220" height="24.65"/>
            </clipPath>
<clipPath id="terminal-1755120052-line-20">
    <rect x="0" y="489.5" width="1220" height="24.65"/>
            </clipPath>
<clipPath id="terminal-1755120052-line-21">
    <rect x="0" y="513.9" width="1220" height="24.65"/>
            </clipPath>
<clipPath id="terminal-1755120052-line-22">
    <rect x="0" y="538.3" width="1220" height="24.65"/>
            </clipPath>
<clipPath id="terminal-1755120052-line-23">
    <rect x="0" y="562.7" width="1220" height="24.65"/>
            </clipPath>
<clipPath id="terminal-1755120052-line-24">
    <rect x="0" y="587.1" width="1220" height="24.65"/>
            </clipPath>
<clipPath id="terminal-1755120052-line-25">
    <rect x="0" y="611.5" width="1220" height="24.65"/>
            </clipPath>
<clipPath id="terminal-1755120052-line-26">
    <rect x="0" y="635.9" width="1220" height="24.65"/>
            </clipPath>
<clipPath id="terminal-1755120052-line-27">
    <rect x="0" y="660.3" width="1220" height="24.65"/>
            </clipPath>
<clipPath id="terminal-1755120052-line-28">
    <rect x="0" y="684.7" width="1220" height="24.65"/>
            </clipPath>
    </defs>

    <rect fill="#292929" stroke="rgba(255,255,255,0.35)" stroke-width="1" x="1" y="1" width="1236" height="780" rx="8"/><text class="terminal-1755120052-title" fill="#c5c8c6" text-anchor="middle" x="618" y="27">slurmpast</text>
            <g transform="translate(26,22)">
            <circle cx="0" cy="0" r="7" fill="#ff5f57"/>
            <circle cx="22" cy="0" r="7" fill="#febc2e"/>
            <circle cx="44" cy="0" r="7" fill="#28c840"/>
            </g>
        
    <g transform="translate(9, 41)" clip-path="url(#terminal-1755120052-clip-terminal)">
    <rect fill="#262320" x="0" y="1.5" width="12.2" height="24.65" shape-rendering="crispEdges"/><rect fill="#262320" x="12.2" y="1.5" width="0" height="24.65" shape-rendering="crispEdges"/><rect fill="#262320" x="12.2" y="1.5" width="73.2" height="24.65" shape-rendering="crispEdges"/><rect fill="#262320" x="85.4" y="1.5" width="12.2" height="24.65" shape-rendering="crispEdges"/><rect fill="#262320" x="97.6" y="1.5" width="353.8" height="24.65" shape-rendering="crispEdges"/><rect fill="#262320" x="451.4" y="1.5" width="109.8" height="24.65" shape-rendering="crispEdges"/><rect fill="#262320" x="561.2" y="1.5" width="36.6" height="24.65" shape-rendering="crispEdges"/><rect fill="#262320" x="597.8" y="1.5" width="134.2" height="24.65" shape-rendering="crispEdges"/><rect fill="#262320" x="732" y="1.5" width="366" height="24.65" shape-rendering="crispEdges"/><rect fill="#262320" x="1098" y="1.5" width="12.2" height="24.65" shape-rendering="crispEdges"/><rect fill="#262320" x="1110.2" y="1.5" width="0" height="24.65" shape-rendering="crispEdges"/><rect fill="#262320" x="1110.2" y="1.5" width="97.6" height="24.65" shape-rendering="crispEdges"/><rect fill="#262320" x="1207.8" y="1.5" width="12.2" height="24.65" shape-rendering="crispEdges"/><rect fill="#1e1c1b" x="0" y="25.9" width="12.2" height="24.65" shape-rendering="crispEdges"/><rect fill="#1e1c1b" x="12.2" y="25.9" width="109.8" height="24.65" shape-rendering="crispEdges"/><rect fill="#1e1c1b" x="122" y="25.9" width="12.2" height="24.65" shape-rendering="crispEdges"/><rect fill="#1e1c1b" x="134.2" y="25.9" width="12.2" height="24.65" shape-rendering="crispEdges"/><rect fill="#1e1c1b" x="146.4" y="25.9" width="109.8" height="24.65" shape-rendering="crispEdges"/><rect fill="#1e1c1b" x="256.2" y="25.9" width="927.2" height="24.65" shape-rendering="crispEdges"/><rect fill="#562f22" x="1183.4" y="25.9" width="24.4" height="24.65" shape-rendering="crispEdges"/><rect fill="#1e1c1b" x="1207.8" y="25.9" width="12.2" height="24.65" shape-rendering="crispEdges"/><rect fill="#1e1c1b" x="0" y="50.3" width="12.2" height="24.65" shape-rendering="crispEdges"/><rect fill="#1e1c1b" x="12.2" y="50.3" width="0" height="24.65" shape-rendering="crispEdges"/><rect fill="#1e1c1b" x="12.2" y="50.3" width="1171.2" height="24.65" shape-rendering="crispEdges"/><rect fill="#562f22" x="1183.4" y="50.3" width="24.4" height="24.65" shape-rendering="crispEdges"/><rect fill="#1e1c1b" x="1207.8" y="50.3" width="12.2" height="24.65" shape-rendering="crispEdges"/><rect fill="#1e1c1b" x="0" y="74.7" width="12.2" height="24.65" shape-rendering="crispEdges"/><rect fill="#1e1c1b" x="12.2" y="74.7" width="48.8" height="24.65" shape-rendering="crispEdges"/><rect fill="#1e1c1b" x="61" y="74.7" width="85.4" height="24.65" shape-rendering="crispEdges"/><rect fill="#1e1c1b" x="146.4" y="74.7" width="219.6" height="24.65" shape-rendering="crispEdges"/><rect fill="#1e1c1b" x="366" y="74.7" width="24.4" height="24.65" shape-rendering="crispEdges"/><rect fill="#1e1c1b" x="390.4" y="74.7" width="134.2" height="24.65" shape-rendering="crispEdges"/><rect fill="#1e1c1b" x="524.6" y="74.7" width="427" height="24.65" shape-rendering="crispEdges"/><rect fill="#1e1c1b" x="951.6" y="74.7" width="231.8" height="24.65" shape-rendering="crispEdges"/><rect fill="#562f22" x="1183.4" y="74.7" width="24.4" height="24.65" shape-rendering="crispEdges"/><rect fill="#1e1c1b" x="1207.8" y="74.7" width="12.2" height="24.65" shape-rendering="crispEdges"/><rect fill="#1e1c1b" x="0" y="99.1" width="12.2" height="24.65" shape-rendering="crispEdges"/><rect fill="#1e1c1b" x="12.2" y="99.1" width="48.8" height="24.65" shape-rendering="crispEdges"/><rect fill="#1e1c1b" x="61" y="99.1" width="85.4" height="24.65" shape-rendering="crispEdges"/><rect fill="#1e1c1b" x="146.4" y="99.1" width="24.4" height="24.65" shape-rendering="crispEdges"/><rect fill="#383430" x="170.8" y="99.1" width="12.2" height="24.65" shape-rendering="crispEdges"/><rect fill="#1e1c1b" x="183" y="99.1" width="183" height="24.65" shape-rendering="crispEdges"/><rect fill="#1e1c1b" x="366" y="99.1" width="24.4" height="24.65" shape-rendering="crispEdges"/><rect fill="#1e1c1b" x="390.4" y="99.1" width="134.2" height="24.65" shape-rendering="crispEdges"/><rect fill="#1e1c1b" x="524.6" y="99.1" width="292.8" height="24.65" shape-rendering="crispEdges"/><rect fill="#1e1c1b" x="817.4" y="99.1" width="366" height="24.65" shape-rendering="crispEdges"/><rect fill="#562f22" x="1183.4" y="99.1" width="24.4" height="24.65" shape-rendering="crispEdges"/><rect fill="#1e1c1b" x="1207.8" y="99.1" width="12.2" height="24.65" shape-rendering="crispEdges"/><rect fill="#1e1c1b" x="0" y="123.5" width="12.2" height="24.65" shape-rendering="crispEdges"/><rect fill="#1e1c1b" x="12.2" y="123.5" width="48.8" height="24.65" shape-rendering="crispEdges"/><rect fill="#1e1c1b" x="61" y="123.5" width="85.4" height="24.65" shape-rendering="crispEdges"/><rect fill="#383430" x="146.4" y="123.5" width="12.2" height="24.65" shape-rendering="crispEdges"/><rect fill="#1e1c1b" x="158.6" y="123.5" width="207.4" height="24.65" shape-rendering="crispEdges"/><rect fill="#1e1c1b" x="366" y="123.5" width="24.4" height="24.65" shape-rendering="crispEdges"/><rect fill="#1e1c1b" x="390.4" y="123.5" width="134.2" height="24.65" shape-rendering="crispEdges"/><rect fill="#1e1c1b" x="524.6" y="123.5" width="414.8" height="24.65" shape-rendering="crispEdges"/><rect fill="#1e1c1b" x="939.4" y="123.5" width="244" height="24.65" shape-rendering="crispEdges"/><rect fill="#562f22" x="1183.4" y="123.5" width="24.4" height="24.65" shape-rendering="crispEdges"/><rect fill="#1e1c1b" x="1207.8" y="123.5" width="12.2" height="24.65" shape-rendering="crispEdges"/><rect fill="#1e1c1b" x="0" y="147.9" width="12.2" height="24.65" shape-rendering="crispEdges"/><rect fill="#1e1c1b" x="12.2" y="147.9" width="0" height="24.65" shape-rendering="crispEdges"/><rect fill="#1e1c1b" x="12.2" y="147.9" width="1171.2" height="24.65" shape-rendering="crispEdges"/><rect fill="#562f22" x="1183.4" y="147.9" width="24.4" height="24.65" shape-rendering="crispEdges"/><rect fill="#1e1c1b" x="1207.8" y="147.9" width="12.2" height="24.65" shape-rendering="crispEdges"/><rect fill="#1e1c1b" x="0" y="172.3" width="12.2" height="24.65" shape-rendering="crispEdges"/><rect fill="#1e1c1b" x="12.2" y="172.3" width="61" height="24.65" shape-rendering="crispEdges"/><rect fill="#1e1c1b" x="73.2" y="172.3" width="1110.2" height="24.65" shape-rendering="crispEdges"/><rect fill="#562f22" x="1183.4" y="172.3" width="24.4" height="24.65" shape-rendering="crispEdges"/><rect fill="#1e1c1b" x="1207.8" y="172.3" width="12.2" height="24.65" shape-rendering="crispEdges"/><rect fill="#1e1c1b" x="0" y="196.7" width="12.2" height="24.65" shape-rendering="crispEdges"/><rect fill="#1e1c1b" x="12.2" y="196.7" width="256.2" height="24.65" shape-rendering="crispEdges"/><rect fill="#1e1c1b" x="268.4" y="196.7" width="366" height="24.65" shape-rendering="crispEdges"/><rect fill="#1e1c1b" x="634.4" y="196.7" width="24.4" height="24.65" shape-rendering="crispEdges"/><rect fill="#1e1c1b" x="658.8" y="196.7" width="256.2" height="24.65" shape-rendering="crispEdges"/><rect fill="#1e1c1b" x="915" y="196.7" width="48.8" height="24.65" shape-rendering="crispEdges"/><rect fill="#1e1c1b" x="963.8" y="196.7" width="219.6" height="24.65" shape-rendering="crispEdges"/><rect fill="#562f22" x="1183.4" y="196.7" width="24.4" height="24.65" shape-rendering="crispEdges"/><rect fill="#1e1c1b" x="1207.8" y="196.7" width="12.2" height="24.65" shape-rendering="crispEdges"/><rect fill="#1e1c1b" x="0" y="221.1" width="12.2" height="24.65" shape-rendering="crispEdges"/><rect fill="#1e1c1b" x="12.2" y="221.1" width="256.2" height="24.65" shape-rendering="crispEdges"/><rect fill="#1e1c1b" x="268.4" y="221.1" width="366" height="24.65" shape-rendering="crispEdges"/><rect fill="#1e1c1b" x="634.4" y="221.1" width="24.4" height="24.65" shape-rendering="crispEdges"/><rect fill="#1e1c1b" x="658.8" y="221.1" width="256.2" height="24.65" shape-rendering="crispEdges"/><rect fill="#1e1c1b" x="915" y="221.1" width="109.8" height="24.65" shape-rendering="crispEdges"/><rect fill="#1e1c1b" x="1024.8" y="221.1" width="158.6" height="24.65" shape-rendering="crispEdges"/><rect fill="#562f22" x="1183.4" y="221.1" width="24.4" height="24.65" shape-rendering="crispEdges"/><rect fill="#1e1c1b" x="1207.8" y="221.1" width="12.2" height="24.65" shape-rendering="crispEdges"/><rect fill="#1e1c1b" x="0" y="245.5" width="12.2" height="24.65" shape-rendering="crispEdges"/><rect fill="#1e1c1b" x="12.2" y="245.5" width="256.2" height="24.65" shape-rendering="crispEdges"/><rect fill="#1e1c1b" x="268.4" y="245.5" width="366" height="24.65" shape-rendering="crispEdges"/><rect fill="#1e1c1b" x="634.4" y="245.5" width="24.4" height="24.65" shape-rendering="crispEdges"/><rect fill="#1e1c1b" x="658.8" y="245.5" width="256.2" height="24.65" shape-rendering="crispEdges"/><rect fill="#1e1c1b" x="915" y="245.5" width="48.8" height="24.65" shape-rendering="crispEdges"/><rect fill="#1e1c1b" x="963.8" y="245.5" width="219.6" height="24.65" shape-rendering="crispEdges"/><rect fill="#562f22" x="1183.4" y="245.5" width="24.4" height="24.65" shape-rendering="crispEdges"/><rect fill="#1e1c1b" x="1207.8" y="245.5" width="12.2" height="24.65" shape-rendering="crispEdges"/><rect fill="#1e1c1b" x="0" y="269.9" width="12.2" height="24.65" shape-rendering="crispEdges"/><rect fill="#1e1c1b" x="12.2" y="269.9" width="256.2" height="24.65" shape-rendering="crispEdges"/><rect fill="#1e1c1b" x="268.4" y="269.9" width="268.4" height="24.65" shape-rendering="crispEdges"/><rect fill="#1e1c1b" x="536.8" y="269.9" width="646.6" height="24.65" shape-rendering="crispEdges"/><rect fill="#562f22" x="1183.4" y="269.9" width="24.4" height="24.65" shape-rendering="crispEdges"/><rect fill="#1e1c1b" x="1207.8" y="269.9" width="12.2" height="24.65" shape-rendering="crispEdges"/><rect fill="#1e1c1b" x="0" y="294.3" width="12.2" height="24.65" shape-rendering="crispEdges"/><rect fill="#1e1c1b" x="12.2" y="294.3" width="0" height="24.65" shape-rendering="crispEdges"/><rect fill="#1e1c1b" x="12.2" y="294.3" width="1171.2" height="24.65" shape-rendering="crispEdges"/><rect fill="#562f22" x="1183.4" y="294.3" width="24.4" height="24.65" shape-rendering="crispEdges"/><rect fill="#1e1c1b" x="1207.8" y="294.3" width="12.2" height="24.65" shape-rendering="crispEdges"/><rect fill="#1e1c1b" x="0" y="318.7" width="12.2" height="24.65" shape-rendering="crispEdges"/><rect fill="#1e1c1b" x="12.2" y="318.7" width="97.6" height="24.65" shape-rendering="crispEdges"/><rect fill="#1e1c1b" x="109.8" y="318.7" width="1073.6" height="24.65" shape-rendering="crispEdges"/><rect fill="#562f22" x="1183.4" y="318.7" width="24.4" height="24.65" shape-rendering="crispEdges"/><rect fill="#1e1c1b" x="1207.8" y="318.7" width="12.2" height="24.65" shape-rendering="crispEdges"/><rect fill="#1e1c1b" x="0" y="343.1" width="12.2" height="24.65" shape-rendering="crispEdges"/><rect fill="#1e1c1b" x="12.2" y="343.1" width="256.2" height="24.65" shape-rendering="crispEdges"/><rect fill="#1e1c1b" x="268.4" y="343.1" width="366" height="24.65" shape-rendering="crispEdges"/><rect fill="#1e1c1b" x="634.4" y="343.1" width="24.4" height="24.65" shape-rendering="crispEdges"/><rect fill="#1e1c1b" x="658.8" y="343.1" width="256.2" height="24.65" shape-rendering="crispEdges"/><rect fill="#1e1c1b" x="915" y="343.1" width="231.8" height="24.65" shape-rendering="crispEdges"/><rect fill="#1e1c1b" x="1146.8" y="343.1" width="36.6" height="24.65" shape-rendering="crispEdges"/><rect fill="#562f22" x="1183.4" y="343.1" width="24.4" height="24.65" shape-rendering="crispEdges"/><rect fill="#1e1c1b" x="1207.8" y="343.1" width="12.2" height="24.65" shape-rendering="crispEdges"/><rect fill="#1e1c1b" x="0" y="367.5" width="12.2" height="24.65" shape-rendering="crispEdges"/><rect fill="#1e1c1b" x="12.2" y="367.5" width="256.2" height="24.65" shape-rendering="crispEdges"/><rect fill="#1e1c1b" x="268.4" y="367.5" width="366" height="24.65" shape-rendering="crispEdges"/><rect fill="#1e1c1b" x="634.4" y="367.5" width="24.4" height="24.65" shape-rendering="crispEdges"/><rect fill="#1e1c1b" x="658.8" y="367.5" width="256.2" height="24.65" shape-rendering="crispEdges"/><rect fill="#1e1c1b" x="915" y="367.5" width="48.8" height="24.65" shape-rendering="crispEdges"/><rect fill="#1e1c1b" x="963.8" y="367.5" width="219.6" height="24.65" shape-rendering="crispEdges"/><rect fill="#562f22" x="1183.4" y="367.5" width="24.4" height="24.65" shape-rendering="crispEdges"/><rect fill="#1e1c1b" x="1207.8" y="367.5" width="12.2" height="24.65" shape-rendering="crispEdges"/><rect fill="#1e1c1b" x="0" y="391.9" width="12.2" height="24.65" shape-rendering="crispEdges"/><rect fill="#1e1c1b" x="12.2" y="391.9" width="0" height="24.65" shape-rendering="crispEdges"/><rect fill="#1e1c1b" x="12.2" y="391.9" width="1171.2" height="24.65" shape-rendering="crispEdges"/><rect fill="#562f22" x="1183.4" y="391.9" width="24.4" height="24.65" shape-rendering="crispEdges"/><rect fill="#1e1c1b" x="1207.8" y="391.9" width="12.2" height="24.65" shape-rendering="crispEdges"/><rect fill="#1e1c1b" x="0" y="416.3" width="12.2" height="24.65" shape-rendering="crispEdges"/><rect fill="#1e1c1b" x="12.2" y="416.3" width="61" height="24.65" shape-rendering="crispEdges"/><rect fill="#1e1c1b" x="73.2" y="416.3" width="1110.2" height="24.65" shape-rendering="crispEdges"/><rect fill="#562f22" x="1183.4" y="416.3" width="24.4" height="24.65" shape-rendering="crispEdges"/><rect fill="#1e1c1b" x="1207.8" y="416.3" width="12.2" height="24.65" shape-rendering="crispEdges"/><rect fill="#1e1c1b" x="0" y="440.7" width="12.2" height="24.65" shape-rendering="crispEdges"/><rect fill="#1e1c1b" x="12.2" y="440.7" width="256.2" height="24.65" shape-rendering="crispEdges"/><rect fill="#1e1c1b" x="268.4" y="440.7" width="170.8" height="24.65" shape-rendering="crispEdges"/><rect fill="#1e1c1b" x="439.2" y="440.7" width="744.2" height="24.65" shape-rendering="crispEdges"/><rect fill="#562f22" x="1183.4" y="440.7" width="24.4" height="24.65" shape-rendering="crispEdges"/><rect fill="#1e1c1b" x="1207.8" y="440.7" width="12.2" height="24.65" shape-rendering="crispEdges"/><rect fill="#1e1c1b" x="0" y="465.1" width="12.2" height="24.65" shape-rendering="crispEdges"/><rect fill="#1e1c1b" x="12.2" y="465.1" width="0" height="24.65" shape-rendering="crispEdges"/><rect fill="#1e1c1b" x="12.2" y="465.1" width="1171.2" height="24.65" shape-rendering="crispEdges"/><rect fill="#562f22" x="1183.4" y="465.1" width="24.4" height="24.65" shape-rendering="crispEdges"/><rect fill="#1e1c1b" x="1207.8" y="465.1" width="12.2" height="24.65" shape-rendering="crispEdges"/><rect fill="#1e1c1b" x="0" y="489.5" width="12.2" height="24.65" shape-rendering="crispEdges"/><rect fill="#1e1c1b" x="12.2" y="489.5" width="97.6" height="24.65" shape-rendering="crispEdges"/><rect fill="#1e1c1b" x="109.8" y="489.5" width="1073.6" height="24.65" shape-rendering="crispEdges"/><rect fill="#562f22" x="1183.4" y="489.5" width="24.4" height="24.65" shape-rendering="crispEdges"/><rect fill="#1e1c1b" x="1207.8" y="489.5" width="12.2" height="24.65" shape-rendering="crispEdges"/><rect fill="#1e1c1b" x="0" y="513.9" width="12.2" height="24.65" shape-rendering="crispEdges"/><rect fill="#1e1c1b" x="12.2" y="513.9" width="256.2" height="24.65" shape-rendering="crispEdges"/><rect fill="#1e1c1b" x="268.4" y="513.9" width="500.2" height="24.65" shape-rendering="crispEdges"/><rect fill="#1e1c1b" x="768.6" y="513.9" width="414.8" height="24.65" shape-rendering="crispEdges"/><rect fill="#562f22" x="1183.4" y="513.9" width="24.4" height="24.65" shape-rendering="crispEdges"/><rect fill="#1e1c1b" x="1207.8" y="513.9" width="12.2" height="24.65" shape-rendering="crispEdges"/><rect fill="#1e1c1b" x="0" y="538.3" width="12.2" height="24.65" shape-rendering="crispEdges"/><rect fill="#1e1c1b" x="12.2" y="538.3" width="0" height="24.65" shape-rendering="crispEdges"/><rect fill="#1e1c1b" x="12.2" y="538.3" width="1171.2" height="24.65" shape-rendering="crispEdges"/><rect fill="#562f22" x="1183.4" y="538.3" width="24.4" height="24.65" shape-rendering="crispEdges"/><rect fill="#1e1c1b" x="1207.8" y="538.3" width="12.2" height="24.65" shape-rendering="crispEdges"/><rect fill="#1e1c1b" x="0" y="562.7" width="12.2" height="24.65" shape-rendering="crispEdges"/><rect fill="#1e1c1b" x="12.2" y="562.7" width="61" height="24.65" shape-rendering="crispEdges"/><rect fill="#1e1c1b" x="73.2" y="562.7" width="1110.2" height="24.65" shape-rendering="crispEdges"/><rect fill="#562f22" x="1183.4" y="562.7" width="24.4" height="24.65" shape-rendering="crispEdges"/><rect fill="#1e1c1b" x="1207.8" y="562.7" width="12.2" height="24.65" shape-rendering="crispEdges"/><rect fill="#1e1c1b" x="0" y="587.1" width="12.2" height="24.65" shape-rendering="crispEdges"/><rect fill="#1e1c1b" x="12.2" y="587.1" width="256.2" height="24.65" shape-rendering="crispEdges"/><rect fill="#1e1c1b" x="268.4" y="587.1" width="366" height="24.65" shape-rendering="crispEdges"/><rect fill="#1e1c1b" x="634.4" y="587.1" width="24.4" height="24.65" shape-rendering="crispEdges"/><rect fill="#1e1c1b" x="658.8" y="587.1" width="256.2" height="24.65" shape-rendering="crispEdges"/><rect fill="#1e1c1b" x="915" y="587.1" width="36.6" height="24.65" shape-rendering="crispEdges"/><rect fill="#1e1c1b" x="951.6" y="587.1" width="231.8" height="24.65" shape-rendering="crispEdges"/><rect fill="#562f22" x="1183.4" y="587.1" width="24.4" height="24.65" shape-rendering="crispEdges"/><rect fill="#1e1c1b" x="1207.8" y="587.1" width="12.2" height="24.65" shape-rendering="crispEdges"/><rect fill="#1e1c1b" x="0" y="611.5" width="12.2" height="24.65" shape-rendering="crispEdges"/><rect fill="#1e1c1b" x="12.2" y="611.5" width="256.2" height="24.65" shape-rendering="crispEdges"/><rect fill="#1e1c1b" x="268.4" y="611.5" width="793" height="24.65" shape-rendering="crispEdges"/><rect fill="#1e1c1b" x="1061.4" y="611.5" width="122" height="24.65" shape-rendering="crispEdges"/><rect fill="#000000" x="1183.4" y="611.5" width="24.4" height="24.65" shape-rendering="crispEdges"/><rect fill="#1e1c1b" x="1207.8" y="611.5" width="12.2" height="24.65" shape-rendering="crispEdges"/><rect fill="#1e1c1b" x="0" y="635.9" width="12.2" height="24.65" shape-rendering="crispEdges"/><rect fill="#1e1c1b" x="12.2" y="635.9" width="0" height="24.65" shape-rendering="crispEdges"/><rect fill="#1e1c1b" x="12.2" y="635.9" width="1171.2" height="24.65" shape-rendering="crispEdges"/><rect fill="#000000" x="1183.4" y="635.9" width="24.4" height="24.65" shape-rendering="crispEdges"/><rect fill="#1e1c1b" x="1207.8" y="635.9" width="12.2" height="24.65" shape-rendering="crispEdges"/><rect fill="#1e1c1b" x="0" y="660.3" width="12.2" height="24.65" shape-rendering="crispEdges"/><rect fill="#1e1c1b" x="12.2" y="660.3" width="0" height="24.65" shape-rendering="crispEdges"/><rect fill="#1e1c1b" x="12.2" y="660.3" width="1171.2" height="24.65" shape-rendering="crispEdges"/><rect fill="#000000" x="1183.4" y="660.3" width="24.4" height="24.65" shape-rendering="crispEdges"/><rect fill="#1e1c1b" x="1207.8" y="660.3" width="12.2" height="24.65" shape-rendering="crispEdges"/><rect fill="#1e1c1b" x="0" y="684.7" width="12.2" height="24.65" shape-rendering="crispEdges"/><rect fill="#1e1c1b" x="12.2" y="684.7" width="0" height="24.65" shape-rendering="crispEdges"/><rect fill="#1e1c1b" x="12.2" y="684.7" width="1171.2" height="24.65" shape-rendering="crispEdges"/><rect fill="#000000" x="1183.4" y="684.7" width="24.4" height="24.65" shape-rendering="crispEdges"/><rect fill="#1e1c1b" x="1207.8" y="684.7" width="12.2" height="24.65" shape-rendering="crispEdges"/><rect fill="#262320" x="0" y="709.1" width="36.6" height="24.65" shape-rendering="crispEdges"/><rect fill="#262320" x="36.6" y="709.1" width="61" height="24.65" shape-rendering="crispEdges"/><rect fill="#262320" x="97.6" y="709.1" width="36.6" height="24.65" shape-rendering="crispEdges"/><rect fill="#262320" x="134.2" y="709.1" width="134.2" height="24.65" shape-rendering="crispEdges"/><rect fill="#262320" x="268.4" y="709.1" width="805.2" height="24.65" shape-rendering="crispEdges"/><rect fill="#262320" x="1073.6" y="709.1" width="12.2" height="24.65" shape-rendering="crispEdges"/><rect fill="#262320" x="1085.8" y="709.1" width="24.4" height="24.65" shape-rendering="crispEdges"/><rect fill="#262320" x="1110.2" y="709.1" width="97.6" height="24.65" shape-rendering="crispEdges"/><rect fill="#262320" x="1207.8" y="709.1" width="12.2" height="24.65" shape-rendering="crispEdges"/>
    <g class="terminal-1755120052-matrix">
    <text class="terminal-1755120052-r2" x="451.4" y="20" textLength="109.8" clip-path="url(#terminal-1755120052-line-0)">slurmpast</text><text class="terminal-1755120052-r3" x="561.2" y="20" textLength="36.6" clip-path="url(#terminal-1755120052-line-0)">&#160;—&#160;</text><text class="terminal-1755120052-r3" x="597.8" y="20" textLength="134.2" clip-path="url(#terminal-1755120052-line-0)">job&#160;5100020</text><text class="terminal-1755120052-r1" x="1220" y="20" textLength="12.2" clip-path="url(#terminal-1755120052-line-0)">
</text><text class="terminal-1755120052-r4" x="12.2" y="44.4" textLength="109.8" clip-path="url(#terminal-1755120052-line-1)">5100020&#160;&#160;</text><text class="terminal-1755120052-r5" x="122" y="44.4" textLength="12.2" clip-path="url(#terminal-1755120052-line-1)">●</text><text class="terminal-1755120052-r5" x="146.4" y="44.4" textLength="109.8" clip-path="url(#terminal-1755120052-line-1)">COMPLETED</text><text class="terminal-1755120052-r1" x="1220" y="44.4" textLength="12.2" clip-path="url(#terminal-1755120052-line-1)">
</text><text class="terminal-1755120052-r1" x="1220" y="68.8" textLength="12.2" clip-path="url(#terminal-1755120052-line-2)">
</text><text class="terminal-1755120052-r7" x="12.2" y="93.2" textLength="48.8" clip-path="url(#terminal-1755120052-line-3)">&#160;&#160;●&#160;</text><text class="terminal-1755120052-r7" x="61" y="93.2" textLength="85.4" clip-path="url(#terminal-1755120052-line-3)">TIME&#160;&#160;&#160;</text><text class="terminal-1755120052-r7" x="146.4" y="93.2" textLength="219.6" clip-path="url(#terminal-1755120052-line-3)">██████████████████</text><text class="terminal-1755120052-r2" x="390.4" y="93.2" textLength="134.2" clip-path="url(#terminal-1755120052-line-3)">&#160;&#160;&#160;&#160;&#160;101.4%</text><text class="terminal-1755120052-r8" x="524.6" y="93.2" textLength="427" clip-path="url(#terminal-1755120052-line-3)">&#160;&#160;&#160;·&#160;00:30:26&#160;of&#160;the&#160;00:30:00&#160;limit</text><text class="terminal-1755120052-r1" x="1220" y="93.2" textLength="12.2" clip-path="url(#terminal-1755120052-line-3)">
</text><text class="terminal-1755120052-r9" x="12.2" y="117.6" textLength="48.8" clip-path="url(#terminal-1755120052-line-4)">&#160;&#160;●&#160;</text><text class="terminal-1755120052-r9" x="61" y="117.6" textLength="85.4" clip-path="url(#terminal-1755120052-line-4)">CPU&#160;&#160;&#160;&#160;</text><text class="terminal-1755120052-r9" x="146.4" y="117.6" textLength="24.4" clip-path="url(#terminal-1755120052-line-4)">██</text><text class="terminal-1755120052-r9" x="170.8" y="117.6" textLength="12.2" clip-path="url(#terminal-1755120052-line-4)">▉</text><text class="terminal-1755120052-r10" x="183" y="117.6" textLength="183" clip-path="url(#terminal-1755120052-line-4)">░░░░░░░░░░░░░░░</text><text class="terminal-1755120052-r2" x="390.4" y="117.6" textLength="134.2" clip-path="url(#terminal-1755120052-line-4)">&#160;&#160;&#160;&#160;&#160;&#160;16.2%</text><text class="terminal-1755120052-r8" x="524.6" y="117.6" textLength="292.8" clip-path="url(#terminal-1755120052-line-4)">&#160;&#160;&#160;·&#160;1.0&#160;of&#160;6&#160;cores&#160;busy</text><text class="terminal-1755120052-r1" x="1220" y="117.6" textLength="12.2" clip-path="url(#terminal-1755120052-line-4)">
</text><text class="terminal-1755120052-r11" x="12.2" y="142" textLength="48.8" clip-path="url(#terminal-1755120052-line-5)">&#160;&#160;●&#160;</text><text class="terminal-1755120052-r11" x="61" y="142" textLength="85.4" clip-path="url(#terminal-1755120052-line-5)">MEM&#160;&#160;&#160;&#160;</text><text class="terminal-1755120052-r11" x="146.4" y="142" textLength="12.2" clip-path="url(#terminal-1755120052-line-5)">▍</text><text class="terminal-1755120052-r10" x="158.6" y="142" textLength="207.4" clip-path="url(#terminal-1755120052-line-5)">░░░░░░░░░░░░░░░░░</text><text class="terminal-1755120052-r2" x="390.4" y="142" textLength="134.2" clip-path="url(#terminal-1755120052-line-5)">&#160;&#160;&#160;&#160;&#160;&#160;&#160;2.4%</text><text class="terminal-1755120052-r8" x="524.6" y="142" textLength="414.8" clip-path="url(#terminal-1755120052-line-5)">&#160;&#160;&#160;·&#160;1.9&#160;GiB&#160;of&#160;the&#160;80.0&#160;GiB&#160;limit</text><text class="terminal-1755120052-r1" x="1220" y="142" textLength="12.2" clip-path="url(#terminal-1755120052-line-5)">
</text><text class="terminal-1755120052-r1" x="1220" y="166.4" textLength="12.2" clip-path="url(#terminal-1755120052-line-6)">
</text><text class="terminal-1755120052-r4" x="12.2" y="190.8" textLength="61" clip-path="url(#terminal-1755120052-line-7)">&#160;&#160;job</text><text class="terminal-1755120052-r1" x="1220" y="190.8" textLength="12.2" clip-path="url(#terminal-1755120052-line-7)">
</text><text class="terminal-1755120052-r10" x="12.2" y="215.2" textLength="256.2" clip-path="url(#terminal-1755120052-line-8)">&#160;&#160;&#160;&#160;name&#160;&#160;&#160;&#160;&#160;&#160;&#160;&#160;&#160;&#160;&#160;&#160;&#160;</text><text class="terminal-1755120052-r2" x="268.4" y="215.2" textLength="366" clip-path="url(#terminal-1755120052-line-8)">cot-exp&#160;&#160;&#160;&#160;&#160;&#160;&#160;&#160;&#160;&#160;&#160;&#160;&#160;&#160;&#160;&#160;&#160;&#160;&#160;&#160;&#160;&#160;&#160;</text><text class="terminal-1755120052-r10" x="658.8" y="215.2" textLength="256.2" clip-path="url(#terminal-1755120052-line-8)">&#160;&#160;&#160;&#160;partition&#160;&#160;&#160;&#160;&#160;&#160;&#160;&#160;</text><text class="terminal-1755120052-r2" x="915" y="215.2" textLength="48.8" clip-path="url(#terminal-1755120052-line-8)">test</text><text class="terminal-1755120052-r1" x="1220" y="215.2" textLength="12.2" clip-path="url(#terminal-1755120052-line-8)">
</text><text class="terminal-1755120052-r10" x="12.2" y="239.6" textLength="256.2" clip-path="url(#terminal-1755120052-line-9)">&#160;&#160;&#160;&#160;qos&#160;&#160;&#160;&#160;&#160;&#160;&#160;&#160;&#160;&#160;&#160;&#160;&#160;&#160;</text><text class="terminal-1755120052-r2" x="268.4" y="239.6" textLength="366" clip-path="url(#terminal-1755120052-line-9)">test&#160;&#160;&#160;&#160;&#160;&#160;&#160;&#160;&#160;&#160;&#160;&#160;&#160;&#160;&#160;&#160;&#160;&#160;&#160;&#160;&#160;&#160;&#160;&#160;&#160;&#160;</text><text class="terminal-1755120052-r10" x="658.8" y="239.6" textLength="256.2" clip-path="url(#terminal-1755120052-line-9)">&#160;&#160;&#160;&#160;account&#160;&#160;&#160;&#160;&#160;&#160;&#160;&#160;&#160;&#160;</text><text class="terminal-1755120052-r2" x="915" y="239.6" textLength="109.8" clip-path="url(#terminal-1755120052-line-9)">rcc-staff</text><text class="terminal-1755120052-r1" x="1220" y="239.6" textLength="12.2" clip-path="url(#terminal-1755120052-line-9)">
</text><text class="terminal-1755120052-r10" x="12.2" y="264" textLength="256.2" clip-path="url(#terminal-1755120052-line-10)">&#160;&#160;&#160;&#160;nodes&#160;&#160;&#160;&#160;&#160;&#160;&#160;&#160;&#160;&#160;&#160;&#160;</text><text class="terminal-1755120052-r2" x="268.4" y="264" textLength="366" clip-path="url(#terminal-1755120052-line-10)">midway3-0602&#160;&#160;(1&#160;node)&#160;&#160;&#160;&#160;&#160;&#160;&#160;&#160;</text><text class="terminal-1755120052-r10" x="658.8" y="264" textLength="256.2" clip-path="url(#terminal-1755120052-line-10)">&#160;&#160;&#160;&#160;constraint&#160;&#160;&#160;&#160;&#160;&#160;&#160;</text><text class="terminal-1755120052-r2" x="915" y="264" textLength="48.8" clip-path="url(#terminal-1755120052-line-10)">H100</text><text class="terminal-1755120052-r1" x="1220" y="264" textLength="12.2" clip-path="url(#terminal-1755120052-line-10)">
</text><text class="terminal-1755120052-r10" x="12.2" y="288.4" textLength="256.2" clip-path="url(#terminal-1755120052-line-11)">&#160;&#160;&#160;&#160;workdir&#160;&#160;&#160;&#160;&#160;&#160;&#160;&#160;&#160;&#160;</text><text class="terminal-1755120052-r2" x="268.4" y="288.4" textLength="268.4" clip-path="url(#terminal-1755120052-line-11)">/home/youzhi/ArgonneAI</text><text class="terminal-1755120052-r1" x="1220" y="288.4" textLength="12.2" clip-path="url(#terminal-1755120052-line-11)">
</text><text class="terminal-1755120052-r1" x="1220" y="312.8" textLength="12.2" clip-path="url(#terminal-1755120052-line-12)">
</text><text class="terminal-1755120052-r12" x="12.2" y="337.2" textLength="97.6" clip-path="url(#terminal-1755120052-line-13)">&#160;&#160;timing</text><text class="terminal-1755120052-r1" x="1220" y="337.2" textLength="12.2" clip-path="url(#terminal-1755120052-line-13)">
</text><text class="terminal-1755120052-r10" x="12.2" y="361.6" textLength="256.2" clip-path="url(#terminal-1755120052-line-14)">&#160;&#160;&#160;&#160;submitted&#160;&#160;&#160;&#160;&#160;&#160;&#160;&#160;</text><text class="terminal-1755120052-r7" x="268.4" y="361.6" textLength="366" clip-path="url(#terminal-1755120052-line-14)">2026-07-20T04:07:00&#160;&#160;&#160;&#160;&#160;&#160;&#160;&#160;&#160;&#160;&#160;</text><text class="terminal-1755120052-r10" x="658.8" y="361.6" textLength="256.2" clip-path="url(#terminal-1755120052-line-14)">&#160;&#160;&#160;&#160;started&#160;&#160;&#160;&#160;&#160;&#160;&#160;&#160;&#160;&#160;</text><text class="terminal-1755120052-r7" x="915" y="361.6" textLength="231.8" clip-path="url(#terminal-1755120052-line-14)">2026-07-20T04:07:00</text><text class="terminal-1755120052-r1" x="1220" y="361.6" textLength="12.2" clip-path="url(#terminal-1755120052-line-14)">
</text><text class="terminal-1755120052-r10" x="12.2" y="386" textLength="256.2" clip-path="url(#terminal-1755120052-line-15)">&#160;&#160;&#160;&#160;ended&#160;&#160;&#160;&#160;&#160;&#160;&#160;&#160;&#160;&#160;&#160;&#160;</text><text class="terminal-1755120052-r7" x="268.4" y="386" textLength="366" clip-path="url(#terminal-1755120052-line-15)">2026-07-20T23:59:00&#160;&#160;&#160;&#160;&#160;&#160;&#160;&#160;&#160;&#160;&#160;</text><text class="terminal-1755120052-r10" x="658.8" y="386" textLength="256.2" clip-path="url(#terminal-1755120052-line-15)">&#160;&#160;&#160;&#160;queued&#160;for&#160;&#160;&#160;&#160;&#160;&#160;&#160;</text><text class="terminal-1755120052-r7" x="915" y="386" textLength="48.8" clip-path="url(#terminal-1755120052-line-15)">1.0s</text><text class="terminal-1755120052-r1" x="1220" y="386" textLength="12.2" clip-path="url(#terminal-1755120052-line-15)">
</text><text class="terminal-1755120052-r1" x="1220" y="410.4" textLength="12.2" clip-path="url(#terminal-1755120052-line-16)">
</text><text class="terminal-1755120052-r13" x="12.2" y="434.8" textLength="61" clip-path="url(#terminal-1755120052-line-17)">&#160;&#160;cpu</text><text class="terminal-1755120052-r1" x="1220" y="434.8" textLength="12.2" clip-path="url(#terminal-1755120052-line-17)">
</text><text class="terminal-1755120052-r10" x="12.2" y="459.2" textLength="256.2" clip-path="url(#terminal-1755120052-line-18)">&#160;&#160;&#160;&#160;user&#160;/&#160;system&#160;&#160;&#160;&#160;</text><text class="terminal-1755120052-r9" x="268.4" y="459.2" textLength="170.8" clip-path="url(#terminal-1755120052-line-18)">00:29:40&#160;/&#160;n/a</text><text class="terminal-1755120052-r1" x="1220" y="459.2" textLength="12.2" clip-path="url(#terminal-1755120052-line-18)">
</text><text class="terminal-1755120052-r1" x="1220" y="483.6" textLength="12.2" clip-path="url(#terminal-1755120052-line-19)">
</text><text class="terminal-1755120052-r14" x="12.2" y="508" textLength="97.6" clip-path="url(#terminal-1755120052-line-20)">&#160;&#160;memory</text><text class="terminal-1755120052-r1" x="1220" y="508" textLength="12.2" clip-path="url(#terminal-1755120052-line-20)">
</text><text class="terminal-1755120052-r10" x="12.2" y="532.4" textLength="256.2" clip-path="url(#terminal-1755120052-line-21)">&#160;&#160;&#160;&#160;limit&#160;&#160;&#160;&#160;&#160;&#160;&#160;&#160;&#160;&#160;&#160;&#160;</text><text class="terminal-1755120052-r11" x="268.4" y="532.4" textLength="500.2" clip-path="url(#terminal-1755120052-line-21)">80.0&#160;GiB&#160;(from&#160;AllocTRES;&#160;ReqMem&#160;read&#160;0n)</text><text class="terminal-1755120052-r1" x="1220" y="532.4" textLength="12.2" clip-path="url(#terminal-1755120052-line-21)">
</text><text class="terminal-1755120052-r1" x="1220" y="556.8" textLength="12.2" clip-path="url(#terminal-1755120052-line-22)">
</text><text class="terminal-1755120052-r15" x="12.2" y="581.2" textLength="61" clip-path="url(#terminal-1755120052-line-23)">&#160;&#160;gpu</text><text class="terminal-1755120052-r1" x="1220" y="581.2" textLength="12.2" clip-path="url(#terminal-1755120052-line-23)">
</text><text class="terminal-1755120052-r10" x="12.2" y="605.6" textLength="256.2" clip-path="url(#terminal-1755120052-line-24)">&#160;&#160;&#160;&#160;devices&#160;&#160;&#160;&#160;&#160;&#160;&#160;&#160;&#160;&#160;</text><text class="terminal-1755120052-r16" x="268.4" y="605.6" textLength="366" clip-path="url(#terminal-1755120052-line-24)">1&#160;&#160;&#160;&#160;&#160;&#160;&#160;&#160;&#160;&#160;&#160;&#160;&#160;&#160;&#160;&#160;&#160;&#160;&#160;&#160;&#160;&#160;&#160;&#160;&#160;&#160;&#160;&#160;&#160;</text><text class="terminal-1755120052-r10" x="658.8" y="605.6" textLength="256.2" clip-path="url(#terminal-1755120052-line-24)">&#160;&#160;&#160;&#160;gpu-hours&#160;&#160;&#160;&#160;&#160;&#160;&#160;&#160;</text><text class="terminal-1755120052-r16" x="915" y="605.6" textLength="36.6" clip-path="url(#terminal-1755120052-line-24)">0.5</text><text class="terminal-1755120052-r17" x="1183.4" y="605.6" textLength="24.4" clip-path="url(#terminal-1755120052-line-24)">▇▇</text><text class="terminal-1755120052-r1" x="1220" y="605.6" textLength="12.2" clip-path="url(#terminal-1755120052-line-24)">
</text><text class="terminal-1755120052-r10" x="12.2" y="630" textLength="256.2" clip-path="url(#terminal-1755120052-line-25)">&#160;&#160;&#160;&#160;utilization&#160;&#160;&#160;&#160;&#160;&#160;</text><text class="terminal-1755120052-r16" x="268.4" y="630" textLength="793" clip-path="url(#terminal-1755120052-line-25)">not&#160;gathered&#160;by&#160;this&#160;cluster&#160;(needs&#160;AutoDetect=nvml&#160;in&#160;gres.conf)</text><text class="terminal-1755120052-r1" x="1220" y="630" textLength="12.2" clip-path="url(#terminal-1755120052-line-25)">
</text><text class="terminal-1755120052-r1" x="1220" y="654.4" textLength="12.2" clip-path="url(#terminal-1755120052-line-26)">
</text><text class="terminal-1755120052-r1" x="1220" y="678.8" textLength="12.2" clip-path="url(#terminal-1755120052-line-27)">
</text><text class="terminal-1755120052-r1" x="1220" y="703.2" textLength="12.2" clip-path="url(#terminal-1755120052-line-28)">
</text><text class="terminal-1755120052-r15" x="0" y="727.6" textLength="36.6" clip-path="url(#terminal-1755120052-line-29)">&#160;q&#160;</text><text class="terminal-1755120052-r2" x="36.6" y="727.6" textLength="61" clip-path="url(#terminal-1755120052-line-29)">Back&#160;</text><text class="terminal-1755120052-r15" x="97.6" y="727.6" textLength="36.6" clip-path="url(#terminal-1755120052-line-29)">&#160;w&#160;</text><text class="terminal-1755120052-r2" x="134.2" y="727.6" textLength="134.2" clip-path="url(#terminal-1755120052-line-29)">Time&#160;range&#160;</text><text class="terminal-1755120052-r18" x="1073.6" y="727.6" textLength="12.2" clip-path="url(#terminal-1755120052-line-29)">▏</text><text class="terminal-1755120052-r15" x="1085.8" y="727.6" textLength="24.4" clip-path="url(#terminal-1755120052-line-29)">^p</text><text class="terminal-1755120052-r2" x="1110.2" y="727.6" textLength="97.6" clip-path="url(#terminal-1755120052-line-29)">&#160;palette</text>
    </g>
    </g>
</svg>
